<?xml version="1.0" encoding="UTF-8"?>
<svg id="Layer_2" data-name="Layer 2" xmlns="http://www.w3.org/2000/svg" viewBox="0 0 404.94 384">
  <defs>
    <style>
      .cls-1 {
        fill: #131418;
      }
    </style>
  </defs>
  <g id="Layer_1-2" data-name="Layer 1">
    <g id="Layer_2-2" data-name="Layer 2-2">
      <path class="cls-1" d="m370.04,209.44V34.98h-62.83V0h-20.94v34.98H118.78V0h-20.94v34.98h-62.9v118.65H0v20.98h34.94v34.84H0v20.98h34.94v118.72h62.9v34.87h20.94v-34.87h167.48v34.87h20.94v-34.87h62.83v-118.72h34.91v-20.98s-34.91,0-34.91,0Zm-272.2,118.72h-41.96v-97.74h41.96v97.74Zm0-118.72h-41.96v-34.84h41.96v34.84Zm0-55.81h-41.96V55.85h41.96v97.77Zm20.94-97.77h104.65v38.29h-104.65s0-38.29,0-38.29Zm104.65,272.3h-104.65v-38.5h104.65v38.5Zm125.63-118.72h-76.72v20.98h76.72v97.74h-41.85v-38.5h-20.94v38.5h-41.82v-118.72h-52.39v20.98h31.38v38.36h-104.65v-38.36h45.31v-20.98h-45.31v-34.84h80.21v-20.98h-80.21v-38.43h104.65v59.41h80.28v-20.98h-59.27V55.85h41.82v45.38h20.94v-45.38h41.85s0,153.59,0,153.59Z"/>
    </g>
  </g>
</svg>